<mxfile host="app.diagrams.net" modified="2023-07-17T02:15:13.566Z" agent="Mozilla/5.0 (Macintosh; Intel Mac OS X 10_15_7) AppleWebKit/537.36 (KHTML, like Gecko) Chrome/114.0.0.0 Safari/537.36" etag="UKZ3x4CA-y4GQDRVazdE" version="21.6.1" type="github">
  <diagram name="Page-1" id="2YBvvXClWsGukQMizWep">
    <mxGraphModel dx="794" dy="1163" grid="1" gridSize="10" guides="1" tooltips="1" connect="1" arrows="1" fold="1" page="1" pageScale="1" pageWidth="850" pageHeight="1100" math="0" shadow="0">
      <root>
        <mxCell id="0" />
        <mxCell id="1" parent="0" />
        <mxCell id="aM9ryv3xv72pqoxQDRHE-1" value="Front" style="shape=umlLifeline;perimeter=lifelinePerimeter;whiteSpace=wrap;html=1;container=0;dropTarget=0;collapsible=0;recursiveResize=0;outlineConnect=0;portConstraint=eastwest;newEdgeStyle={&quot;edgeStyle&quot;:&quot;elbowEdgeStyle&quot;,&quot;elbow&quot;:&quot;vertical&quot;,&quot;curved&quot;:0,&quot;rounded&quot;:0};" parent="1" vertex="1">
          <mxGeometry x="40" y="40" width="100" height="500" as="geometry" />
        </mxCell>
        <mxCell id="aM9ryv3xv72pqoxQDRHE-2" value="" style="html=1;points=[];perimeter=orthogonalPerimeter;outlineConnect=0;targetShapes=umlLifeline;portConstraint=eastwest;newEdgeStyle={&quot;edgeStyle&quot;:&quot;elbowEdgeStyle&quot;,&quot;elbow&quot;:&quot;vertical&quot;,&quot;curved&quot;:0,&quot;rounded&quot;:0};" parent="aM9ryv3xv72pqoxQDRHE-1" vertex="1">
          <mxGeometry x="45" y="100" width="10" height="110" as="geometry" />
        </mxCell>
        <mxCell id="aM9ryv3xv72pqoxQDRHE-5" value="Back" style="shape=umlLifeline;perimeter=lifelinePerimeter;whiteSpace=wrap;html=1;container=0;dropTarget=0;collapsible=0;recursiveResize=0;outlineConnect=0;portConstraint=eastwest;newEdgeStyle={&quot;edgeStyle&quot;:&quot;elbowEdgeStyle&quot;,&quot;elbow&quot;:&quot;vertical&quot;,&quot;curved&quot;:0,&quot;rounded&quot;:0};" parent="1" vertex="1">
          <mxGeometry x="510" y="40" width="100" height="500" as="geometry" />
        </mxCell>
        <mxCell id="aM9ryv3xv72pqoxQDRHE-6" value="" style="html=1;points=[];perimeter=orthogonalPerimeter;outlineConnect=0;targetShapes=umlLifeline;portConstraint=eastwest;newEdgeStyle={&quot;edgeStyle&quot;:&quot;elbowEdgeStyle&quot;,&quot;elbow&quot;:&quot;vertical&quot;,&quot;curved&quot;:0,&quot;rounded&quot;:0};" parent="aM9ryv3xv72pqoxQDRHE-5" vertex="1">
          <mxGeometry x="45" y="120" width="10" height="70" as="geometry" />
        </mxCell>
        <mxCell id="-8Yh8foPW3nLuySLqsEq-7" value="" style="edgeStyle=elbowEdgeStyle;elbow=vertical;endArrow=classic;html=1;curved=0;rounded=0;endSize=8;startSize=8;" edge="1" parent="aM9ryv3xv72pqoxQDRHE-5" source="aM9ryv3xv72pqoxQDRHE-6" target="aM9ryv3xv72pqoxQDRHE-6">
          <mxGeometry width="50" height="50" relative="1" as="geometry">
            <mxPoint x="55" y="140" as="sourcePoint" />
            <mxPoint x="55" y="180" as="targetPoint" />
            <Array as="points">
              <mxPoint x="100" y="130" />
            </Array>
          </mxGeometry>
        </mxCell>
        <mxCell id="-8Yh8foPW3nLuySLqsEq-8" value="ID, PW를 이용하여 &lt;br style=&quot;font-size: 14px;&quot;&gt;사용자 확인" style="edgeLabel;html=1;align=center;verticalAlign=middle;resizable=0;points=[];fontSize=14;" vertex="1" connectable="0" parent="-8Yh8foPW3nLuySLqsEq-7">
          <mxGeometry x="0.0133" y="1" relative="1" as="geometry">
            <mxPoint x="59" y="-1" as="offset" />
          </mxGeometry>
        </mxCell>
        <mxCell id="-8Yh8foPW3nLuySLqsEq-1" value="" style="endArrow=blockThin;html=1;rounded=0;endFill=1;" edge="1" parent="1" target="aM9ryv3xv72pqoxQDRHE-2">
          <mxGeometry relative="1" as="geometry">
            <mxPoint x="20" y="140" as="sourcePoint" />
            <mxPoint x="460" y="640" as="targetPoint" />
          </mxGeometry>
        </mxCell>
        <mxCell id="-8Yh8foPW3nLuySLqsEq-2" value="로그인 화면 진입" style="edgeLabel;resizable=0;html=1;align=center;verticalAlign=middle;fontSize=14;fontStyle=1" connectable="0" vertex="1" parent="-8Yh8foPW3nLuySLqsEq-1">
          <mxGeometry relative="1" as="geometry">
            <mxPoint y="-20" as="offset" />
          </mxGeometry>
        </mxCell>
        <mxCell id="-8Yh8foPW3nLuySLqsEq-3" value="" style="endArrow=openThin;html=1;rounded=0;endFill=0;" edge="1" parent="1" source="aM9ryv3xv72pqoxQDRHE-2" target="aM9ryv3xv72pqoxQDRHE-6">
          <mxGeometry relative="1" as="geometry">
            <mxPoint x="160" y="170" as="sourcePoint" />
            <mxPoint x="320" y="170" as="targetPoint" />
            <Array as="points">
              <mxPoint x="330" y="160" />
            </Array>
          </mxGeometry>
        </mxCell>
        <mxCell id="-8Yh8foPW3nLuySLqsEq-4" value="&lt;div style=&quot;text-align: left;&quot;&gt;&lt;b&gt;Login Request&lt;/b&gt;&lt;/div&gt;&lt;div style=&quot;text-align: left;&quot;&gt;method : post&lt;/div&gt;&lt;div style=&quot;text-align: left;&quot;&gt;header : x&lt;/div&gt;&lt;div style=&quot;text-align: left;&quot;&gt;body : ID, PW (암호화)&lt;/div&gt;" style="edgeLabel;resizable=0;html=1;align=center;verticalAlign=middle;fontSize=14;" connectable="0" vertex="1" parent="-8Yh8foPW3nLuySLqsEq-3">
          <mxGeometry relative="1" as="geometry">
            <mxPoint x="-105" y="-40" as="offset" />
          </mxGeometry>
        </mxCell>
        <mxCell id="-8Yh8foPW3nLuySLqsEq-9" value="" style="endArrow=openThin;html=1;rounded=0;endFill=0;dashed=1;dashPattern=8 8;" edge="1" parent="1" source="aM9ryv3xv72pqoxQDRHE-6" target="aM9ryv3xv72pqoxQDRHE-2">
          <mxGeometry relative="1" as="geometry">
            <mxPoint x="105" y="300" as="sourcePoint" />
            <mxPoint x="565" y="300" as="targetPoint" />
            <Array as="points">
              <mxPoint x="350" y="230" />
            </Array>
          </mxGeometry>
        </mxCell>
        <mxCell id="-8Yh8foPW3nLuySLqsEq-10" value="&lt;b&gt;Login Response&lt;/b&gt;&lt;br&gt;header : AccessToken (iss, sub, exp, iat, id, role)&lt;br style=&quot;font-size: 14px;&quot;&gt;body : ID, 이름, Email, 나이, 부서, 권한" style="edgeLabel;resizable=0;html=1;align=left;verticalAlign=middle;fontSize=14;" connectable="0" vertex="1" parent="-8Yh8foPW3nLuySLqsEq-9">
          <mxGeometry relative="1" as="geometry">
            <mxPoint x="-85" y="-30" as="offset" />
          </mxGeometry>
        </mxCell>
        <mxCell id="-8Yh8foPW3nLuySLqsEq-11" value="loop" style="shape=umlFrame;whiteSpace=wrap;html=1;pointerEvents=0;" vertex="1" parent="1">
          <mxGeometry x="30" y="300" width="600" height="200" as="geometry" />
        </mxCell>
        <mxCell id="-8Yh8foPW3nLuySLqsEq-12" value="" style="html=1;points=[];perimeter=orthogonalPerimeter;outlineConnect=0;targetShapes=umlLifeline;portConstraint=eastwest;newEdgeStyle={&quot;edgeStyle&quot;:&quot;elbowEdgeStyle&quot;,&quot;elbow&quot;:&quot;vertical&quot;,&quot;curved&quot;:0,&quot;rounded&quot;:0};" vertex="1" parent="1">
          <mxGeometry x="85" y="360" width="10" height="110" as="geometry" />
        </mxCell>
        <mxCell id="-8Yh8foPW3nLuySLqsEq-13" value="" style="html=1;points=[];perimeter=orthogonalPerimeter;outlineConnect=0;targetShapes=umlLifeline;portConstraint=eastwest;newEdgeStyle={&quot;edgeStyle&quot;:&quot;elbowEdgeStyle&quot;,&quot;elbow&quot;:&quot;vertical&quot;,&quot;curved&quot;:0,&quot;rounded&quot;:0};" vertex="1" parent="1">
          <mxGeometry x="555" y="380" width="10" height="70" as="geometry" />
        </mxCell>
        <mxCell id="-8Yh8foPW3nLuySLqsEq-14" value="" style="edgeStyle=elbowEdgeStyle;elbow=vertical;endArrow=classic;html=1;curved=0;rounded=0;endSize=8;startSize=8;" edge="1" parent="1" source="-8Yh8foPW3nLuySLqsEq-13" target="-8Yh8foPW3nLuySLqsEq-13">
          <mxGeometry width="50" height="50" relative="1" as="geometry">
            <mxPoint x="565" y="400" as="sourcePoint" />
            <mxPoint x="565" y="440" as="targetPoint" />
            <Array as="points">
              <mxPoint x="610" y="390" />
            </Array>
          </mxGeometry>
        </mxCell>
        <mxCell id="-8Yh8foPW3nLuySLqsEq-15" value="인가 (권한 확인)" style="edgeLabel;html=1;align=center;verticalAlign=middle;resizable=0;points=[];fontSize=14;" vertex="1" connectable="0" parent="-8Yh8foPW3nLuySLqsEq-14">
          <mxGeometry x="0.0133" y="1" relative="1" as="geometry">
            <mxPoint x="49" y="-1" as="offset" />
          </mxGeometry>
        </mxCell>
        <mxCell id="-8Yh8foPW3nLuySLqsEq-16" value="" style="endArrow=openThin;html=1;rounded=0;endFill=0;" edge="1" parent="1" source="-8Yh8foPW3nLuySLqsEq-12" target="-8Yh8foPW3nLuySLqsEq-13">
          <mxGeometry relative="1" as="geometry">
            <mxPoint x="160" y="390" as="sourcePoint" />
            <mxPoint x="320" y="390" as="targetPoint" />
            <Array as="points">
              <mxPoint x="330" y="380" />
            </Array>
          </mxGeometry>
        </mxCell>
        <mxCell id="-8Yh8foPW3nLuySLqsEq-17" value="&lt;div style=&quot;text-align: left;&quot;&gt;&lt;b&gt;Request&lt;/b&gt;&lt;/div&gt;&lt;div style=&quot;text-align: left;&quot;&gt;header : Access Token&lt;/div&gt;" style="edgeLabel;resizable=0;html=1;align=center;verticalAlign=middle;fontSize=14;" connectable="0" vertex="1" parent="-8Yh8foPW3nLuySLqsEq-16">
          <mxGeometry relative="1" as="geometry">
            <mxPoint x="-105" y="-30" as="offset" />
          </mxGeometry>
        </mxCell>
        <mxCell id="-8Yh8foPW3nLuySLqsEq-18" value="" style="endArrow=openThin;html=1;rounded=0;endFill=0;dashed=1;dashPattern=8 8;" edge="1" parent="1" source="-8Yh8foPW3nLuySLqsEq-13" target="-8Yh8foPW3nLuySLqsEq-12">
          <mxGeometry relative="1" as="geometry">
            <mxPoint x="105" y="520" as="sourcePoint" />
            <mxPoint x="565" y="520" as="targetPoint" />
            <Array as="points">
              <mxPoint x="350" y="450" />
            </Array>
          </mxGeometry>
        </mxCell>
        <mxCell id="-8Yh8foPW3nLuySLqsEq-19" value="&lt;b&gt;Response&lt;/b&gt;&lt;br&gt;" style="edgeLabel;resizable=0;html=1;align=left;verticalAlign=middle;fontSize=14;" connectable="0" vertex="1" parent="-8Yh8foPW3nLuySLqsEq-18">
          <mxGeometry relative="1" as="geometry">
            <mxPoint x="125" y="-20" as="offset" />
          </mxGeometry>
        </mxCell>
      </root>
    </mxGraphModel>
  </diagram>
</mxfile>
